<svg width="16" height="17" viewBox="0 0 16 17" fill="none" xmlns="http://www.w3.org/2000/svg">
<g clip-path="url(#clip0_1_15)">
<path d="M16 3.15625C15.4 3.45625 14.8 3.55625 14.1 3.65625C14.8 3.25625 15.3 2.65625 15.5 1.85625C14.9 2.25625 14.2 2.45625 13.4 2.65625C12.8 2.05625 11.9 1.65625 11 1.65625C9.3 1.65625 7.8 3.15625 7.8 4.95625C7.8 5.25625 7.8 5.45625 7.9 5.75625C5.2 5.55625 2.7 4.25625 1.1 2.25625C0.8 2.75625 0.7 3.35625 0.7 3.85625C0.7 4.95625 1.3 5.95625 2.2 6.55625C1.7 6.55625 1.2 6.35625 0.7 6.15625C0.7 7.75625 1.8 9.05625 3.3 9.35625C3 9.55625 2.7 9.55625 2.4 9.55625C2.2 9.55625 2 9.55625 1.8 9.45625C2.2 10.7563 3.4 11.7563 4.9 11.7563C3.8 12.6563 2.4 13.1562 0.8 13.1562H0C1.5 14.0562 3.2 14.6562 5 14.6562C11 14.6562 14.3 9.65625 14.3 5.35625V4.95625C15 4.45625 15.6 3.85625 16 3.15625Z" fill="#10162F"/>
</g>
<defs>
<clipPath id="clip0_1_15">
<rect width="16" height="16" fill="white" transform="translate(0 0.15625)"/>
</clipPath>
</defs>
</svg>
