<svg width="16" height="17" viewBox="0 0 16 17" fill="none" xmlns="http://www.w3.org/2000/svg">
<g clip-path="url(#clip0_1_21)">
<path d="M14 16.1562H2C0.9 16.1562 0 15.2563 0 14.1562V2.15625C0 1.05625 0.9 0.15625 2 0.15625H14C15.1 0.15625 16 1.05625 16 2.15625V14.1562C16 15.2563 15.1 16.1562 14 16.1562ZM8 5.05625C6.8 5.05625 5.7 5.75625 5.2 6.85625C5.2 6.95625 5.1 6.95625 5.1 7.05625V7.15625C5 7.25625 5 7.35625 5 7.35625V8.05625C5 9.75625 6.4 11.1562 8.1 11.1562C9.8 11.1562 11.2 9.75625 11.2 8.05625V7.35625C11.2 7.35625 11.2 7.25625 11.1 7.15625V7.05625C11.1 6.95625 11 6.95625 11 6.85625C10.3 5.75625 9.2 5.05625 8 5.05625ZM14.2 2.75625C14.2 2.35625 13.8 1.95625 13.4 1.95625H11.8C11.4 1.95625 11 2.35625 11 2.75625V4.35625C11 4.75625 11.4 5.15625 11.8 5.15625H13.4C13.8 5.15625 14.2 4.75625 14.2 4.35625V2.75625ZM14.2 6.85625H12.7C12.8 7.25625 12.9 7.65625 12.9 8.15625C12.9 10.8563 10.7 13.0562 8 13.0562C5.3 13.0562 3.1 10.8563 3.1 8.15625C3.1 7.65625 3.2 7.25625 3.3 6.85625H1.8V13.5562C1.8 13.9562 2.2 14.3562 2.6 14.3562H13.4C13.8 14.3562 14.2 13.9562 14.2 13.5562V6.85625Z" fill="#10162F"/>
</g>
<defs>
<clipPath id="clip0_1_21">
<rect width="16" height="16" fill="white" transform="translate(0 0.15625)"/>
</clipPath>
</defs>
</svg>
