<svg width="16" height="17" viewBox="0 0 16 17" fill="none" xmlns="http://www.w3.org/2000/svg">
<g clip-path="url(#clip0_1_24)">
<path d="M3.93335 3.56954V6.40954C3.93335 6.54215 3.98603 6.66933 4.0798 6.7631C4.17356 6.85686 4.30074 6.90954 4.43335 6.90954C4.56596 6.90954 4.69313 6.85686 4.7869 6.7631C4.88067 6.66933 4.93335 6.54215 4.93335 6.40954V3.56954L6.83335 1.03621C6.87275 0.981492 6.90098 0.91955 6.91644 0.853922C6.9319 0.788293 6.93428 0.720262 6.92344 0.653713C6.91261 0.587165 6.88877 0.523401 6.8533 0.466064C6.81782 0.408727 6.7714 0.358939 6.71668 0.319542C6.66197 0.280146 6.60002 0.251912 6.5344 0.236454C6.46877 0.220996 6.40074 0.218616 6.33419 0.229449C6.19979 0.251328 6.07958 0.325702 6.00002 0.436209L4.40002 2.56954L2.83335 0.436209C2.79395 0.38368 2.7446 0.339426 2.6881 0.305972C2.6316 0.272518 2.56906 0.25052 2.50406 0.241234C2.43906 0.231948 2.37287 0.235556 2.30926 0.251852C2.24565 0.268148 2.18588 0.296812 2.13335 0.336209C2.08082 0.375606 2.03657 0.424963 2.00311 0.481462C1.96966 0.537962 1.94766 0.600497 1.93837 0.665498C1.92909 0.730499 1.9327 0.796693 1.94899 0.8603C1.96529 0.923906 1.99395 0.98368 2.03335 1.03621L3.93335 3.56954ZM6.30002 3.40954V5.40954C6.30002 5.80737 6.45805 6.1889 6.73936 6.4702C7.02066 6.75151 7.40219 6.90954 7.80002 6.90954C8.19784 6.90954 8.57937 6.75151 8.86068 6.4702C9.14198 6.1889 9.30002 5.80737 9.30002 5.40954V3.40954C9.30002 3.01172 9.14198 2.63019 8.86068 2.34888C8.57937 2.06758 8.19784 1.90954 7.80002 1.90954C7.40219 1.90954 7.02066 2.06758 6.73936 2.34888C6.45805 2.63019 6.30002 3.01172 6.30002 3.40954ZM7.30002 3.40954C7.30002 3.27693 7.3527 3.14976 7.44646 3.05599C7.54023 2.96222 7.66741 2.90954 7.80002 2.90954C7.93262 2.90954 8.0598 2.96222 8.15357 3.05599C8.24734 3.14976 8.30002 3.27693 8.30002 3.40954V5.40954C8.30002 5.54215 8.24734 5.66933 8.15357 5.7631C8.0598 5.85686 7.93262 5.90954 7.80002 5.90954C7.66741 5.90954 7.54023 5.85686 7.44646 5.7631C7.3527 5.66933 7.30002 5.54215 7.30002 5.40954V3.40954ZM10.54 6.36954C10.7098 6.53936 10.9114 6.67391 11.1334 6.76544C11.3554 6.85698 11.5932 6.90368 11.8334 6.90288C12.1526 6.89972 12.4654 6.81233 12.74 6.64954C12.7824 6.7257 12.8442 6.78926 12.9192 6.83376C12.9941 6.87826 13.0795 6.90211 13.1667 6.90288C13.2993 6.90288 13.4265 6.8502 13.5202 6.75643C13.614 6.66266 13.6667 6.53548 13.6667 6.40288V2.40288C13.6667 2.27027 13.614 2.14309 13.5202 2.04932C13.4265 1.95555 13.2993 1.90288 13.1667 1.90288C13.0341 1.90288 12.9069 1.95555 12.8131 2.04932C12.7194 2.14309 12.6667 2.27027 12.6667 2.40288V5.06954C12.6667 5.29056 12.5789 5.50252 12.4226 5.6588C12.2663 5.81508 12.0544 5.90288 11.8334 5.90288C11.6123 5.90288 11.4004 5.81508 11.2441 5.6588C11.0878 5.50252 11 5.29056 11 5.06954V2.40288C11 2.27027 10.9473 2.14309 10.8536 2.04932C10.7598 1.95555 10.6326 1.90288 10.5 1.90288C10.3674 1.90288 10.2402 1.95555 10.1465 2.04932C10.0527 2.14309 10 2.27027 10 2.40288V5.06954C9.9992 5.31123 10.0465 5.55066 10.1392 5.77386C10.232 5.99706 10.3682 6.19956 10.54 6.36954ZM12.3334 11.7362C12.3334 11.6478 12.2982 11.563 12.2357 11.5005C12.1732 11.438 12.0884 11.4029 12 11.4029C11.9116 11.4029 11.8268 11.438 11.7643 11.5005C11.7018 11.563 11.6667 11.6478 11.6667 11.7362V12.0695H12.3334V11.7362ZM9.33335 11.4029C9.24494 11.4029 9.16016 11.438 9.09765 11.5005C9.03514 11.563 9.00002 11.6478 9.00002 11.7362V13.0695C9.00002 13.1579 9.03514 13.2427 9.09765 13.3052C9.16016 13.3678 9.24494 13.4029 9.33335 13.4029C9.42176 13.4029 9.50654 13.3678 9.56905 13.3052C9.63156 13.2427 9.66668 13.1579 9.66668 13.0695V11.7362C9.66668 11.6478 9.63156 11.563 9.56905 11.5005C9.50654 11.438 9.42176 11.4029 9.33335 11.4029Z" fill="#10162F"/>
<path d="M12.6666 8.06958H3.33331C2.53766 8.06958 1.7746 8.38565 1.21199 8.94826C0.649384 9.51087 0.333313 10.2739 0.333313 11.0696V13.0696C0.333313 13.8652 0.649384 14.6283 1.21199 15.1909C1.7746 15.7535 2.53766 16.0696 3.33331 16.0696H12.6666C13.4623 16.0696 14.2254 15.7535 14.788 15.1909C15.3506 14.6283 15.6666 13.8652 15.6666 13.0696V11.0696C15.6666 10.2739 15.3506 9.51087 14.788 8.94826C14.2254 8.38565 13.4623 8.06958 12.6666 8.06958ZM5.33331 10.7362H4.33331V13.7229C4.33331 13.8113 4.29819 13.8961 4.23568 13.9586C4.17317 14.0211 4.08839 14.0562 3.99998 14.0562C3.91157 14.0562 3.82679 14.0211 3.76428 13.9586C3.70177 13.8961 3.66665 13.8113 3.66665 13.7229V10.7362H2.66665C2.57824 10.7362 2.49346 10.7011 2.43094 10.6386C2.36843 10.5761 2.33331 10.4913 2.33331 10.4029C2.33331 10.3145 2.36843 10.2297 2.43094 10.1672C2.49346 10.1047 2.57824 10.0696 2.66665 10.0696H5.33331C5.42172 10.0696 5.5065 10.1047 5.56902 10.1672C5.63153 10.2297 5.66665 10.3145 5.66665 10.4029C5.66665 10.4913 5.63153 10.5761 5.56902 10.6386C5.5065 10.7011 5.42172 10.7362 5.33331 10.7362ZM7.65331 13.0696V13.7362C7.65372 13.8029 7.63415 13.8681 7.59713 13.9235C7.56011 13.9789 7.50735 14.0219 7.44564 14.047C7.38393 14.0721 7.31611 14.0782 7.25094 14.0644C7.18576 14.0506 7.12621 14.0175 7.07998 13.9696C6.94705 14.0345 6.80123 14.0687 6.65331 14.0696C6.3881 14.0696 6.13374 13.9642 5.94621 13.7767C5.75867 13.5892 5.65331 13.3348 5.65331 13.0696V11.0696C5.65331 10.9812 5.68843 10.8964 5.75094 10.8339C5.81346 10.7714 5.89824 10.7362 5.98665 10.7362C6.07505 10.7362 6.15984 10.7714 6.22235 10.8339C6.28486 10.8964 6.31998 10.9812 6.31998 11.0696V13.0696C6.31998 13.158 6.3551 13.2428 6.41761 13.3053C6.48012 13.3678 6.56491 13.4029 6.65331 13.4029C6.74172 13.4029 6.8265 13.3678 6.88902 13.3053C6.95153 13.2428 6.98665 13.158 6.98665 13.0696V11.0696C6.98665 10.9812 7.02177 10.8964 7.08428 10.8339C7.14679 10.7714 7.23157 10.7362 7.31998 10.7362C7.40839 10.7362 7.49317 10.7714 7.55568 10.8339C7.61819 10.8964 7.65331 10.9812 7.65331 11.0696V13.0696ZM10.32 13.0696C10.32 13.3348 10.2146 13.5892 10.0271 13.7767C9.83955 13.9642 9.5852 14.0696 9.31998 14.0696C9.16703 14.0686 9.0164 14.0321 8.87998 13.9629C8.8327 14.0068 8.77371 14.036 8.71017 14.047C8.64663 14.058 8.58125 14.0503 8.52198 14.0249C8.4627 13.9995 8.41207 13.9575 8.37622 13.9039C8.34036 13.8503 8.32083 13.7874 8.31998 13.7229V9.72291C8.31998 9.63451 8.3551 9.54972 8.41761 9.48721C8.48012 9.4247 8.56491 9.38958 8.65331 9.38958C8.74172 9.38958 8.8265 9.4247 8.88902 9.48721C8.95153 9.54972 8.98665 9.63451 8.98665 9.72291V10.8229C9.09347 10.7839 9.20624 10.7636 9.31998 10.7629C9.5852 10.7629 9.83955 10.8683 10.0271 11.0558C10.2146 11.2433 10.32 11.4977 10.32 11.7629V13.0696ZM12.0466 14.0696C11.7674 14.0533 11.5043 13.9336 11.3083 13.734C11.1124 13.5344 10.9978 13.2691 10.9866 12.9896V11.7362C10.9866 11.471 11.092 11.2167 11.2795 11.0291C11.4671 10.8416 11.7214 10.7362 11.9866 10.7362C12.2519 10.7362 12.5062 10.8416 12.6938 11.0291C12.8813 11.2167 12.9866 11.471 12.9866 11.7362V12.4029C12.9866 12.4913 12.9515 12.5761 12.889 12.6386C12.8265 12.7011 12.7417 12.7362 12.6533 12.7362H11.6666V12.9896C11.6772 13.0923 11.7216 13.1886 11.7928 13.2634C11.864 13.3382 11.9579 13.3872 12.06 13.4029C12.2133 13.4029 12.4533 13.3362 12.4533 13.1562C12.4533 13.0678 12.4884 12.9831 12.5509 12.9205C12.6135 12.858 12.6982 12.8229 12.7866 12.8229C12.8751 12.8229 12.9598 12.858 13.0223 12.9205C13.0849 12.9831 13.12 13.0678 13.12 13.1562C13.1125 13.2866 13.0788 13.4141 13.021 13.5311C12.9632 13.6482 12.8825 13.7524 12.7836 13.8376C12.6847 13.9228 12.5697 13.9873 12.4454 14.0271C12.321 14.067 12.19 14.0814 12.06 14.0696H12.0466Z" fill="#10162F"/>
</g>
<defs>
<clipPath id="clip0_1_24">
<rect width="16" height="16" fill="white" transform="translate(0 0.15625)"/>
</clipPath>
</defs>
</svg>
